<mxfile host="app.diagrams.net" modified="2023-12-26T17:40:25.616Z" agent="Mozilla/5.0 (Windows NT 10.0; Win64; x64) AppleWebKit/537.36 (KHTML, like Gecko) Chrome/120.0.0.0 Safari/537.36" etag="OxxqCXjMOnyVGwdiei-f" version="22.1.11" type="device">
  <diagram name="Strona-1" id="68ycld8ZeQDWex5e_Oxm">
    <mxGraphModel dx="969" dy="499" grid="1" gridSize="10" guides="1" tooltips="1" connect="1" arrows="1" fold="1" page="1" pageScale="1" pageWidth="827" pageHeight="1169" math="0" shadow="0">
      <root>
        <mxCell id="0" />
        <mxCell id="1" parent="0" />
        <mxCell id="6rzzWLgIkeYkTLLRdGZp-31" value="" style="shape=image;verticalLabelPosition=bottom;labelBackgroundColor=default;verticalAlign=top;aspect=fixed;imageAspect=0;image=data:image/png,iVBORw0KGgoAAAANSUhEUgAAAJYAAAEsCAMAAAAW+bp3AAABI1BMVEUAAAAAADoAAGYAOjoAOmYAOpAAZrYApgADpwAKqQARrAAYrgAfsQArtQA0twA6AAA6OgA6OmY6ZpA6ZrY6kNs8ugBEvQBNvwBRwQBawwBkxgBmAABmOgBmOjpmkLZmkNtmtttmtv9tyAB2ywCAzQCK0ACQOgCQZgCQZjqQttuQ29uQ2/+U0gCe1QCk1gCv2QC2ZgC2Zjq2kGa2kJC229u22/+2//+62wDF3gDQ4ADbkDrbkGbbtmbbtpDb2//b4wDb///m1w/nyiHn0BjowDToxSrpuULpvTjqtFXqtkzrsWzrsl7ssXfssoDts4rttZPut5juuqLvvqzvw7bwycDw0Mrx19Tx393y6Ofy7Oz/tmb/25D/27b/29v//7b//9v///+19UO3AAAACXBIWXMAAC4jAAAuIwF4pT92AAAGvUlEQVR4nO2dZ3vbNhSFj7K6q6ZOp5027szoUNK6w61Td++9ZdfW//8VJTVJ61zqEoRw/Nh4P9mwIb4PCYLkEQhgdCqBWoADtQAHagEO1AIcqAU4UAtwoBbgQC3AgVqAA7UAB2oBDtQCHKgFOFALcKAW4EAtwIFagAO1AAdqAQ7UAhyoBThQC3CgFuBALcCBWoADtQAHagEO1AIcqAU4UAtwoBbgQC3AgVqAA7UAB2oBDtQCHKgFOFALcKAW4EAtwIFagAO1AAdqAQ7UAhyoBThQC3CgFuBALcCBWoADtQAHagEO1AIcqAU4UAtwoBbgQC3AgVqAA7UABwm2cXzvCeDiC/ve8lESrcNNjLmw4ytPo3X8GqZc3veUJ9LaBS7dHo32+sA1T3karWKnXHiv/OFos7ZbrPJEWgf92c7YRe/O6vJEWsP5RhciTeWJtHanx2p8tK6tLk+kNahu/srq8hCtf53UtGYNumjkV1aXZ61TqbX+tvWPk0qVFGdigFatf9peXZ5IK0UvH6CV4pr4t5NqneJOoXeL30HQ8kRaR5v1+6pCZ5uVJ9YqW1H1LnSmdbI8tdaJe/a5Vrx7+b+ctPpQRtY6d1p/OslaWaut1h9OslbWaqv1u5OslbXaav3mJGudOS3rnn3ver8sv99Z61cntUpG/n58d/o81lt61E+hZeXvg1kxedZPoGXk78VTYu9G4bm3heUcaf1aVtYwD0SK8lmkFKr1i5NKFSuZWaSB3RObAK3m/L3+Hwm1mlO/koHiIDZnpKPxTuza5H92UtNqSpSNFi/XOtrCcnIq1yqvAKzBJdBqaFsf04SytdZPTipVms7EMj69QTe0di07fz8uroqXSECZRMvO3wc0zE2kZebvxRHcMDfUTutHJ9U6Rv5Oe9GEWkYuv7jdAum51q/Fc/mFrEqL5vIz1yhaPzhp9aGMrHXutL5zkrVOsdb3TrJW1mqr9Y2TrJW12mp96yRrnTmthkEr1afucK2vnNQqNQ1AL+/pNVqNA9DLP2q0Ggegl0+LEq3GwXZDXH49gtbXTipVmoYmHm327rBAN4FWQwBe7MhtmjMn0GqI3XbLcESkZYeUB/3yLzG0vnBS0zIi3cJye3T6tAaTQ3rKtIbTcpkWbVsH/ekJGkPrSyeVKsaZuFuNt7qOlw/QMgJwtZbRy6u1mgegx2lbnzmp1mkcgK7Tsgami7XMgeliLXNgejStz520+lBG1jp3Wp86yVpZq63WJ06yVtZqq/Whk6yVtdpqfeAka505LTOX37tePHlcvdVZ630ntUpWLj9PxskwrvVrrZ4wpvN71SFaDRPGlOMVj++x7zHWrtX0cvzsebbrUOu3nVSqNEwlQEbnJtOycnn+zVgyLSuXLzPV/+4WDe7quwotIzst891h3zoRW2q95aSmRZPm4peL/VgdRFStouMojt/hTXTuIOJqTf+w23kkZZCW1bZmMt0njHnTSaWKcSbOe9kY0+sEaFkD0wfzcomW1csP5wex+/xbAVrWNXEx0mDQucm/4aRax8rlB5PysoPoOo9NiNbqCWPINXv9WmYuf7g1KWdviSTQap4wpvckG+PSTutVJ60+lJG1zp3WK06yVtZqq/Wyk6yVtdpqveQka2WttlrPO8laZ07LyuUPb5YTxmwslbfWes5JfetGLj9L3cjELAm0rFx+8VJu5/kgQrSsXL58N35n8rTYdfaMAC0rg5j/GmHS2medVKpYic0ibBsotKxcvtiLE5v5D0m1zPHyw0Xb6hqNBGjZ4+XnI2I75/LPOKlpmVOgfDTuInovkg3ptI62eH+m1Sp72Y37kzSwa78VpMXb1nDeprpnp087qVSxvyGLN5F7gJady88ObvdvMQK07GnB4s3GH6BlT6K20O3atp5yUq1j5PJl/l2muTG+uAvRsnL5ymsPXS8+IVpmLh/v4hOkZeby43v5GLn8405afSgja507rcecZK2s1VbrUSdZK2u11XrESdbKWm21HnaStbppHfSXg4Zoqx895GTZwJhHlwXj6bTKeOakVsSVTAO1xkOiTmpFXMk0SKscEb+sFXPVtgednNg+ereX2lbMNe4CtTb2l5t8zJVMg7Te2WFnYsz1E0O0Jm5LWjHzrQecuLTirc2ZtWRa8dpWMOs9E4NZ0W91jHSDWdYSr1c9YVlLvLr3XILcQcRayTSYitYaVjKNqRVxJdOoWvHu5ZMBtQAHagEO1AIcqAU4UAtwoBbgQC3AgVqAA7UAB2oBDtQCHKgFOFALcKAW4EAtwIFagAO1AAdqAQ7UAhyoBThQC3D+B1cpSNdE2fLmAAAAAElFTkSuQmCC;clipPath=inset(14.67% 4% 3.33% 21.33%);" vertex="1" parent="1">
          <mxGeometry x="239" y="172.5" width="61.46" height="135" as="geometry" />
        </mxCell>
        <mxCell id="6rzzWLgIkeYkTLLRdGZp-1" value="" style="shape=image;imageAspect=0;aspect=fixed;verticalLabelPosition=bottom;verticalAlign=top;image=data:image/png,iVBORw0KGgoAAAANSUhEUgAAAMgAAADICAMAAACahl6sAAABEVBMVEUAAAAApgAHqAARrAAYrgAcsAAfsQAnswArtQAwtgA0twA4uQA8ugBAvABEvQBIvgBNvwBRwQBVwgBawwBexABkxgBoxwBtyAByygB2ywB7zACAzQCFzwCK0ACP0QCU0gCZ1ACe1QCk1gCq2ACv2QC02gC62wC/3QDF3gDK3wDQ4ADW4gDb4wDh5ADm1w/m2wvm3wbnyiHnzR3n0Bjn0xTowDTowi/oxSroxybpt0fpuULpuz7pvTjqs1rqtFXqtVDqtkzrsWPrsWjrsWzrsl7ssXHssXfssXzssoDtsoXts4rttI/ttZPut5juuJ3uuqLuvKfvvqzvwLDvw7bvx7vwycDwzcXw0Mrx29jy8vL///+ROhn5AAAACXBIWXMAAC4jAAAuIwF4pT92AAAgAElEQVR4nO3dZ3Mc25Em4DEajeaKJLxptPfee2+BBkB3yavRzuz//yF7ni4pNqTPG7EzHVMRJEGgUXWyKk/mm2+a+of/fSbHP/z/XsD/q+N/BPmvdpwE+Yf/5sc5CrLdfvv28vL9+/v7bJZO12rlcqmUz09ms05nMul0xuPRaDqdzzebz59brXm1Oho1m6Vw9Pv1+vPzcHg8Nhr9/rLZ7Pd9K5nshmOxSKWKxVwuUQxHKpVMdjqFQrVaLtdq/X4+n0g08vlicTLp9zeb6fR4fHlZrcbj5fLbbDafd7vjcLy/j8fD4dvb4TAev74OB4Ns1skqlXy+08nl6uGonacg37+/va3Xi3AMh5VKs0mYarU0GKzXrVa/32gQaL+fzYbDej1cpNms1yeT+dwaNpvX181mPj8cyu12qdRoZLPtdq222RArHm8286kUMXPhqNWurlKpVqtabTQymfBXPL5YZDKTSbU6CcdwOJt1u+V+fzCYzUajVut4HA57vf1+NDocRqNqLRzxeKvVbPqN4bBc7vWG5yrIYjEKR6czHBYKm02xWApS1AuFdnsy8ZQXC49/sWi1ZrPDdLrZlErzeaWyWHS71HK9/vx5vX4pFGhMp9NolEqdThAhn8kUix8T4ej1CoVSKZejFcXi/X0mUygkY7Fy2fmbzfG4GpY5mbTb9fp4NgsaE27kYDAe9/uTyXT6/LzfT6eHbDiie7dc5nLpdCYzHrfOU5DD4fn5eFwsJpNardns9dLpWKzZ7M7n63Wv12plMrVap9PvV8IRvtdqhccc9IJqrVbt9n6/2z0/LxbT7bbRGAy63cmkVOr13Jdm8+mp1W77dCxWrVYqrdb1dS5XLmez19ef8vlkster13O5fL7dbjYLhXq9WGyVy7R5MFitXl6Gw+mUvjUah8NkPK7XW63otrZaiwXLUT1PQdbrzWa/Hw5XKxuz12sEy1gqdfv9bpdy2Vi2e6UyGi2Xh9WqXu/1BoP5vNXqdFYrSvnly3a7Kpfn89Go12ObD4d+f7Go1Uqlp+i2ZDKJRL//+JjPN5u53HBYKjUZ02x2NmPtK5VCwWYOe7wcDibYmufz1Yo5GQ6DhN3uaNQNt3c+r9cHg8lkMAjm+zwFWS6Px93u69fBoNMJvxB+I58fDKqcVbNJqZrN4XA+LxZrtcNhu1xOJna9xz4er1aLxfPzdjuZjMvl5bLX87lms1rtdqtVv52s1Xq9yIfV609PhUIuVypVq8lkKZHgPMvlwYDAzaabNpkEdcrleNbDYbEYj4/H2Wy3e3trtVaz2WbjW7MZsxCtqHqegry9HY/bcNRqyWSwf+NGo1otFtPT6Wo1HD495XK93nRKnHY72F7gYTDgpObz7XY2a7Wen+fzXu+Fja3VwI5Op9crl7vdSqVcbrRatRrjG3xduVJptyuVajiCJYjH5/NstlzudB4fczmaxBT35/Ny8K30erGgn93ues1dT1Yry6TLhOByO53seQoCFU4m7++tYCo5rEYjlYrHax55pZJOj8e80nbb63W7rdZ6PP4cjn5/PO509vv12r+1Wrd75ALTaZ6M9WQcuMSeBTUa6/Vw2GpRymYTcmGKgwnl1p6CPYjHGYlKJZiX6ZS2wanhYutuN3KK4/F0t+t22eLNZjgEm1qtYCTOU5D1erXy8Pr9QsGDTyQuL4OHarfX6+m0UimVWq3dbr22GWu1IT/X7Q7C0WxOp54yBxbwO4dZLjsFHB4A3fDxMZt9spP9yEonk0YD8kmlyuXgMKvVeDyZTKUyGc6xVCoUGo0yo0C9Ld5mH4bjt9+Wy/ffftvtajXf5KRLwVi024XzFGQ2Ezetgn2DxMMOyuZysVhlPBbReIjVaqHQ6Wy3QRtalX5/NuO/AO3JhBlmB+r1xsODaIuCVKvjcbFI2ni8DVfQtlYr8mO9XqdTKmWzvXa7WHx4KBTK5Xo9lbq7e3hg+2vMc6ezWPDBMOV6/ac//fx5OKx//Hh/Hw4FF/V6v9/rnfT/PAVhXynWdNpo2OqPj61WwMmVytNTNptMFgp8ZLFYr5fL+XzVCmezatXzdeVItTqdtq3q5JyVOBhWDL9LVWxXUQC0DiduNu121k+DSwtYstNJJJj5fD5YBP5UxNzrMcHPzyDKr7++v0+Xy+HQ7u90GPbZzP0un6cgjOJoxL42GvW6i1GdsG3v72OxXO7+Pops6dzTUy0TDgFxNluv/8WMtljEif/aiuHLCZvZ60GIjUid4Ivx+O2NzwtBW9jOzXJ5PE4kRiMXY4YFykGsi4tmE0Gx2+33rRZOAqD//DnAk99+e3+P1B1S5X7TfyOI+zMeb7cvL5zl3V2h0O3W6xXu/SkciUQ2G9n4Xg8+HeVyFLtUYo/GY/EGxzzBaogreJEoLM9mwx2K7u0yHPzPy0u/PxwKWmqWXa8vFoUCBDUYJBK8fLtcdqtareVyt8vlbExcQojcQ0gSvHtAYy88W6Wy3wcnc56CLBaHg0jMU6uF8zcaSKMOv5zL3d3xu541iNvvt+l8PB5Cv+CjPeFEolLxrNfij3J5sYiivVjMaUql4KVdMVidtVhyMjkcNhu+qPTwUK+jbfJ5QRDHVCrd3Nzm82LIdpvCVirDoZvc6z0/B2dfqzl70Mqg1yL34bB3noIcj2LE5dIj9HzTaTxUqlKJxSLCAxLq90kQrMz9vQgS29hoiOEgtG53Oj2ZfQRMs+lCURwTNvByud9//rzdii+en2ez5ZIlCF5FzF0sul2ZTPDoISy8vg7KfHmJoGTh2u1eb7mE5WCDfqtFz1arYhGyns2Ox9Wqe56CYAp7Pfa9E/SJoxU3lzGBmw31qtVSqU5HgB4MarU6mzEKCF5Qt9OZzZBSQTuLxcHA4lgBTC1k23l+BruC6q0F8rMZRJdMBhnH43T64SEWE42kwnF5mctlsym8lziyXAanqVYUDgUQsVjM5+025Vos0JGHQ/08BVks9vtG4+5uNBoMINNkMhvcbhV71GgI0VAmHqeFBiUaDPhz3/TggWJOb7Ravb5OJrkcdoOHx71Uq0PESrVqsyO7xmNOv1IJ6hOPc7bX1//2b4lEtSoqqVSCItO0REKYyfFWq8yQGDFANH5iMAgGp40gBvT+3vyeiSAh+poeDq0W3ZjPKRd4tfjypdt9ealUhGogazrd6QQNEbuMRs4IEEepEz9Y0AHsJDAWQV0KucRgwsi93naLn7HHG412O5FMPobj5ubiIhZz0Uym2Uylgrb98kuttlw2GhF0qtcLheHw69fBYpHPMyDuMlGQxN3zFKTdXq3AOuTHdgsDLxbBJflnOFwuLcvDv721w4eHw2z2/Lxeg4LwwmbD7oYLlkqRF3MJG5KjKxZPdns6fX/vdpdLcQau/fIyn3+MxdJpBP3T0+NjpZLNoruy2US9/vAg2TWfT6fga7nMwLfbc+oUBE37FFjj2/XzFGQ0spMRu4J0vy6eC0HK4+NmY6eh3Dk3BGB/PpdcQvbJcWGeRDKbzRrIoFLYMJk+yDKsnipxt3KCtAH+xjsmGg3kP6SDA87nU6nHxw8fgpa1Wvm8m/P6mk632+5KIZiAdjwu8mTggVP6GazyeQoSxXzbrZjIn0yGGS7JXHBB/X6AfuHXQI+wb+18zD1NEEtFOdjjsY8c6/XEh5VKiAIqPGe5XBUUvL+/viIudztGO51OJjOZmjSJs4o7xfugUD5/f3/vJiF4JVry+aBtiaurgD/FY5VKrSaiy+XcnxDhn6cgWFmC7PeSefV6Ol2v5/OlKHkrCgI6RiMOMizVt5B8/FcqBVP3Tt8bDId0kibUahiS6M+4UtntxmMwSN58Pmc7beLgDNHuoxGaQJzWaPhOpho8MVjqM6NRqZTJ3N5++JDLNRcLd+/p6eHh6iqfr9eRLZVzFQSQOxy2W5uZE5Il7BSLEIVaA9l2Z5WbWNns+TxEEQF5ES7YOEJYirB4MvEtBxnUrVabz19fQUx2mZng5GKxJl7GzaJcsleplLtYGI9FDmSrVqXh2YxkslabiqkHg2SyUvnd7+Lxu7tPn+LxxHkKgr91mc1GfkQSROqpA5BnMoydRcmisr0r2kNwRlL6tlKJx7GOTftT/BQFWHifVCrsWjbgeJzPMfdYfIn4XO7pqZRIZDLLJS0eDBBC87nyiOAQI94CR8xc0yZxWt6J/Coo8/Hj3d39fTL59HeeXQwdUZtMP2wU3LJzZTIMTPQ85nM5ymEuR8+5VbfeemUxx+O+6po//1lCez6vVuWA3OHldEoECv7rr5vNagVFWV6wVI+PT09socIPrJwtVOAu2LWo6EPyKcCDXnAggLPtrCChVLJTCoXYeQqC8LfqXA5hhNpgvUaUFJ0pXw/jUPD5/KTQuBCcaLn8+bOaCntl/fzMCe12q1Wr9dfoRZpsKJ0pfJCVwHmG+D6cNFipbvf+XsxDvTodVi4s0mYplZLJm5tCgT+r1QTqzeaUmGJ8UA2zE4+n0+XzFMQOwuYqLjochkMuOfgFkXEsxpDXartdlA8LBieq6LB0v/NXVjlcZbeTPl4HzLXZMA9RrmYje4nqsiggAXz1O7NUysYdDHBasAC8HAxMNouodJXIrKmBqtez2YpPBfeTk/tIJGjf/X36PAWJYE48LnnDmyyX1nKATaNyvnT66Qkvy4nn4R8XYGERXphDiLW7WAhUgGhlH3AtlzFCT9rLUhXMCYoFTTbCJCsSQSRCadQ4CEWHeXR3UEhkdYdDtZrj4Gq1pyfxyNMTXnIweDhPQSoVPJOAzkqdW0bzlKTIZh8e7u8/fry6QmxkMul0N53mCLn8arVUGo1ElsL6U8Q+n3P1aJNKhfva77vR9X2GfbXhFeOE+KdYnE79112wmzHAAalVq8GiNKG5fj+RQK7xgOEMhYJvy7uWy/F4qSTqyZ2nIOA9ZQGppCBFjLlcGS1OvaLaPWTGH/4QXGShILMFvZRK1prN9nqvryE02O/Ru9utqyoK/EuxZYSNlQyAakQBaBqN9HRq8e4K6FMsikQHg6Egxc3Eg6ljo6WNRoDWoAxTzX/LhbEGj+cpCL+P+5Z6pAY44EplEKWOyieBIFTJynQ61mhALb4lr4R0F0Yul33Va+v1cikKR5dYUa22QtcqovEj+9pXLGjbZ0TrriLdbP3Bmcqe+CMTLbuVzSqxLRQ2CDKX2mxGI1UhqhFb5ymIMiTKogxJFuqUmGpXJUoiwKgOnBWgankbXIEakpfa+AAtOoRYJRzPz51OKpXNwjnCm1N1DWgJRYLluVxUOTYCF0cjEZ+kZPjGSII4M52KcJhpSUy3wE2bTDou22rBRpMJIOQK9fMURJQOccuSSNJLV1Srd1HUjbWonQ46Er4GaKI9arNTFrHXcLjFn7CxLCeNgzBCRDQeozuWS57SomgQo9JjRhuN6+urq3/6p3odsUbnghq5c/U6+vFEJtaFYeXyOJejtoApcn63O3Fb5ymIdgh4QonYdisZRJwTaqNz0b57eaEPwQQCfAx1Lvf4GHmnu7tkcjQKmgNmRHBRyA1XBizZDS4Um7XbRfoAWfpQXYETbISTh3tIVyo1+dJToqSglNkNjhS+zhYHGzRwH7Bt/q2epyCCF1T3dMoVrlaKZKhAWGUsJrWo8ICccrZpi4jH+UeWWRBUKsXjwYTD21GaHpWA7j1V0khpdLvDofaM2ezzZ3/oRlVJTbl8fR2LJRJO6FQhsEI9iLScPaJZwMiw6e/uKhWsx2QClkorByt+noJE1WJRFgJs5KmC/7MomsP40iekTYD1bKXVRqieCqDgg17Y5OqDKABkiMdfLlfcW5SjQjMpy51OX1+fn2dRZXMs9vCgNIoG0fEeo6v+pF5X4ezC5fLhEMJxoBKyh4nK5dGIUOXzFMQTU0aCMUB5r9cKYBsc2uOjNaTT8hc4oNksb43ICk1jar/wgX77FBqpVoYNOS/p8e22geWnuDAICiISJywwKmnI5+NxN0kPAH2tIBHVjKVS3KDKCo1PQbDJBFoBGpUDStb3+38bWInbul0LpLTyZ9DwRu1nVNTuDrvbYrJwfxIJIUSjsdnUakJnfwdYWqtJ9Sh7QWL5CgHe9OxUw+DLnH2xeAvHZhMierIRQ35beFpCoaTTshiRM1IF5aTWFE5we5tKJRK2HAuHpamfpyDCB3gGrmEUGKdGY2QLaIwCjOkjZ55Ot7gHHCNoi9Q4JW3CGWpaECLPq2JjONTmU6+30GLDobQ06AUYq6Y/HAZfv06nEZ2mLAoxUyiE/0csDcWdzYrFzUY8Ql/zAAcaEkajuO7N+DwFAVd1EUA1kKwIo1jsEgPOAn3abSzwaBSPt/hZGzCfF7fzQbHYL7/c3WVsW/UcCkPX6+32/Z2D7qFU8Mqg2GyGQdlud7vgs+TEASunEPGBC8HpR7EnqgS2hjLU1YebTIM5GNUEqC/ot3CegtjLaletBFhCYYWdiBGx0ZEq4C43E/6WpOM30CSRlS8WcWJ5mgNdRbF7gMNbJPqbFly6yRnxP9pG2c+Z5kfWhfN+fo4ECQjb3YuKN9br19fDgRpHjV7DKIZ0Y4dDhFcA6+cpSFTOrirJ1l2vI2DZE7ExkVHSLcq3Bf9LRcQtvG3kRItFQDbX62WzutKkQN7etlsfW68n4hBl0avV4eAGMaZsc6/Z1BTEmyrI0NkLN/dpTDwerRXxpf9rswkfRUjLi6uA0qkqHqmfpyC2lAXhUpDuMhjb7ca3VDRpExFuSz8PBq1O5+UFyKAgEQ+cyVxe3t0Fix11jij4OPEhLeHHgH7Znxh7BTiQixtxqsqV50TFFAqiGZq6gPVo6WqVyYxGinYUP7+8zKNCtsFgt+NIp1N+s3qegojJImiCkwUJANe5YGC/18R7PO73whXkcPip2idAUOGAQj9mO2igtYXAMrNabbeqczYbLPBMeM3wvrx8+7bfo6W+fDmxJCBjrbbfQzDqRsgbfiwgnc+fn19flbUxvkrbgj6530qpuEIA8jRl4DwFmc+TSXl411XMAUiMRhP9ZeY8LJffv8vnykWFa6jrwBbiXPS0K32Rd21H2UDFHn9N3J/qbfRmYyKPxy9fCBSFISHKFJrf3kasJDVWehk0TyJxNPrtty9f2AINHb2evV23LE157qGv2OnieQpiu7J9wBkooQn6/X1i30tg6QH47bfD4etXLRIt3esgCiQSoN9AIZKS73hUSCZIkvTV12tIwMRndVf7ddMIorrKanUaaaSACs0ZpS+DZUDvyjObvsGn9oJoJgzscDkcLsOLZLi4CMKcpyC4ECxrlPbDHn7+fDxOhNl25nD47/+uoF6ovV5/HY3e3mxEJZ1gBHK8Wk2lGmL81Up9xHJpLVFT1Qjp8fnzfA61+4GiFjp36s0Fx8FyFYJM9n6/AkfM3vj6FQe23UYYKVjn3e7lpdWKggSpE+WGnfMURCOSPs+okUtnuyKDHk+mLlb3ijo+GcIQ7UQ1aD7BUHJx+IkQeUYMCjYrqjOTkq1WQxi9XJoTwCarMyMf37dlzDm1aK4NcsNkgikN00bgwsqquenT50Em4Zf/ONWp4fQ8BaEasuZKNE0L6HTe38Mej9SDBdQ6ejjIR3W7VfVaXCLbPBp9+zafH49uQSeKnUS0iwWcFxXklxhqxMPLi25PyfTJJJkcDEa4ZDEXQCrbDq+/vX2hrFFqBQJ9e3NK4fWCg5Y97J1uMXdaKv39HpHr5UUpqlAb3N1EPCd1Xa263ahM9O2tD9K+vn79amjSy8tu96c/HY+vr/v9VqJHlkEzydub0P/UV4AHgQDe3lwfIEO8tVrL9Tqqho9cORLgePz6Ndw1cALlrQb5+3f7ShL1hCxUS2q/ZBvROfHzFIQf9/Ck0ZQ6G64S7JL8MLBq0kijAYCqUVyJ6aFfPYWibwjV18+K2Q/hUN4rPzGdCgknbhB1OrGFdeVkKpqGw2ZUR8Bt8R++ZSu92ZYI70jRh0O9ePR7INvHUy0Wr6+uAKO1zlMQatVqSfrbwhpAnWQjRIumI0lSArlqK9d6SAkqCHx7+/Of1+uXF5q0+P7dcAl0lKE4hwOgUK1OKJYzAmqGLOHFldqfMp1aqPr9l5fD4XjM52lhsINfv/7Hf+jBkx56f2c5oPGuzS6jgeyCs7vdELWfpyBcse6c93dGD9nkKYdt+/LC5BJFObzapxAa6F7jq79///LFRseV7/fL5dfj8fv3nz+/fTNkIiocOM2BU4UGWWPYuY3xGFtcLrdqNSUIvA2YJ0mEmqnCcFFGVczOT72+miTS4SO0wWln1MzohIfzFATQsafnczV/2vtw5huwKIKiJtrZ4fbeits29e79Xfeti4Jhs9lvz89fv/Kk374psz8eVUSf0iCKQow+klST4IxwdkFZiCZcAbwrMQ6r1Tqq2I5mKGFbRCVKmUsgusFwmrt8SM1J7zwF0RjtTMJz5IeNNhq1xWzoJc0hspevrzb7qUlE9Pb589sbWKUCEJI6cGc/fhyPZhtEOAMuGmOVEV44MLkuLQenivqooNYMODQkH4Db7Is5hTTP4fA3vMV8B7GNU9BSDb1E2ZjueQqCcaJQHiIHhNlar/Mit6cn1tZjZ6OBkKGrvb19+/b6Op+/vAgpmNUANr+EgzB//jPV+s//7PXe3kIYQXCQVCQOXEKe4vzTvEpBP/SJY3SzQsSxXitf8G11a7yeOtlgfKLEjeKbbjeZVHO7WsXOUxDmFL4QB7y/6xiUvg1XU2sjaQu9KZxkJHvKkbtdM3je3vxNk8zw2KMnv379+XO///GDQ3QDToVNwkBYUtkHjsppyuWaLLQso8JoTIp8Sfg7KFHTThbcqNHR4eMD69KpCF1WQKqXlwjxzHkK4nzYwB8/gA7lyPi9pQZp9LxGXKVFmnGCSebW2ECC73YMRTTe8Nfj8U9/+v49oMdnNkBU+TU4SZOs1hDhywvl0sd1IuknrSigwjKarqHqgFWeKTzDesIgLD8WZrEIkEaeXyCrgEHQKExonqcg7+8A4MvLz59fv769Rd23y2VZ1kldoPhbuyG2I5xIfutEWE3MbIUVIk8WfOP/Csfz8/v7z5/H4/MJ1m+3OfDCKBNIT8ylAJaW9GmNQUumaaD2o7FXx1OSpN87zUhCu1u/u9KGIpXTKBGRSRTGNc5TkC9fjNNjPdfrnz/xiNvtfN7n5XQpSU1F88CQEEPsF0+GtLLVVQsKZV+c5udPab/39x8/IEkJp5Yq2tHo82eD3hgKaREIY+FsVmhEkGECVlwonCrTZYyVWbj0aZBe0L05f426kahXDiC4qJ6nIMgdgIA5HZ5aiTzr0V+HGtI0hjTK8A7UMShW0G2HmuKntF5sIxFEXeKunz9VsAW0YeIxmgKjJS0ldGU9GhIsuCWANJHA/ZzGR+x2UfHLYqGTdDb7+vXl5S8zJcDFqEmRAWYNyucpiBNL+Kn3Ef8fj7J2o6h52WiOaBJY7TR/qawxxfxnblNpuDSTrblHThwOpiCDKvu90VjTaetw2O1Mqon6XVAQtnyjMdbqWy6LAJRQqF9DdnZhzYgb5AzcFTdgtztZF4SI9gtxM6jytzAebX0iEavRrC8nCbCHgg4G9/e4DrVoZr+NxxU/1cWmHEMhqljGsJCZeOT1NaqbM1Pqxw9L3PgyqmBFkLup4sV6fRb1gsxOfeUnEboqBUYqK/N5yb1obFKzyRAej1P5HnM5YzFDcFUhdDr58xREdWLE6kNGoj9DEyqK2fVXpVL4iudnUDSsgXKeZnQF5KRUwATxxSL8htABmcgKHY+j0TEcIPXBkrDO4vW3N+UbUnxz6R0uXy4Olj1xLpOeET7OLaW92dgfzrHbrexY6o2IIXqnE2zYeQoCA2EYRQ14lMUCcx4AGJeBu7DJ1eWJzTpRNlnBgG+K3XDGLy+VzYkJg8yi5L81d7sjqqh5h6O3Yt3RQrwBKBWdQpmhiQrJZLtdUAfPoEVjGBaLz5+/fLHZ13wOj57JoGWibq72eQqixpUpTSbn80LB5QzoqutQ6HZjMfZyNEql2NkgliJoi2OV0Rl631W79+FRlkLuQjdUp4MuayKDsQBRyyj9sMPDj0kUdaebw2xg2MNDPl/wLYWD2v3Zjf0ew7PffxG7KD5znajOZDotn6cgPLSRd/rSrCAqPTsN3o+Gm6L9xNiKWipRtyY9m0yiMQlqZ5rNiq40BTg0SZ0rvRiP+0rrUSpqyzTaRkUzIcpUkKG/yhhzaxeNpFJPyhKF8/QT4xmhgc+fn+kn5Mvk3N1hYf5+mN7ZCML8etgALtQZwrTZfL7hw+SFlLSq99P3FrymKlU1klLSylixujBDRbugmlvbEOYZDt/fA5DFmbAD3qKhMt2YAJnSnkJc6aubm/t7lW+qotPpmTJD58Qqc4bl8s+fmIS9xSFBm02fB/KCWzhPQbQKIGp1veEDMa4BuDK6hULwjBUYZrnU7jaZNO04eC8q5bRyzVSzWVfJoKSxLAb1+v6dZa7KUGFllN5ENUqqKoOOeOFCv59OF4uPj5L/SpeCKrqMFBafxwsrPINcN9ENQrLohKfm3W7jPAXRcBa9AkTxq39NliyDJFFtt3MqNSZfO5fTuqwwSrG/dWA9gl2kWshBXAuyEHdYLFZNJXejwH45XZvd1JiCxlJRofH+iUQ0PrTZ7CNVQEuBxcsLA/z2plZhK2EPvEtEKi4/DXU9V0FE4Oop7CMFNnzffjKJx6PSFSNWOSzYosZhGaVrSs7Dw/U1mknAlHAXLI0eIE0iqrerGHcweH42iy9iROC+UqnCYpjvYeRkZIjN26WNVSqbSMgu66Jm05fLphoeZTUywadX1gQM8/eqdSaCYCrgMO6Qx+ESw94DmUslhKI2oOTpnTphk4lKTe7MZPSQykKhiGs+bawM4lZVEp7SbahHLwDABETTvaxAOispw1goRMNPnFQFW61Winq28PFCLByKsGK/PxHUP35gGrUcUKxMpl0nerMAAAsjSURBVH2egugeV8GjSRxtu99DJFW5PUUq6D6+7PrabNCKlgiJiqcnfz8+apUmfEojTCwG12NDBKKGADW8GgkbIuFkR6uIZjmGudzNTbutMEUUxX6ID0pR65xOMN1KHKmUWYDxslviZZYJHSoJNjhPQeAvWUN8IaBtpGSx2DFgNapS/uswSPRQQN6JhBD38hL7NB4bERCLXV1dJxJ6Pf8y3WSgQYAS5KMyk34/lbq9Bc6FTRSsBwuxLomEAhWFtplMwD861KKOqHz+cBB6A/7BcKvnYi9Y592Oj10u/z6wYrcQbYp7pZ1nswCy5EeFBNF7Ve7vIZxyOc2P6Efl9h2M1c3N3d2Djh+7CCoTydhfTbMveH+j/AArPLXfCVDXl09PNls0qt41yFC6ufnjH7W4wtiAXhSY5tGquFxQ/ZRCmgV0dp6CqLYghtH4YgGBd6NRxDihNLLZmxsr/fQpFovH03d3SqBdQsKHxVLnkkw+smqFwt2dSfPcjN0S9tftLUHb7VjMXjJv25vOAqLiuPQVagcSuYj+wok0MLh3zp/JiF206JdKLWMIKWOlAhjrxQtP4DwFiWJvO1Pisl7/y+sXYSxjdhDHhgBeXNzd3d5eXVx8/JhK3dxAwLqr8vlY7Pr65iaTSmkfjsdvblSw01ZMVfX29vGRe/Hjq6vOqTbGpJKe+W16dE0LAfO0FIelmjglPDGbzPSlWMwdCivTBoenASPUKLAg7fMUJEJDogUxeK9nfFTwDNlsRD1CQHd3Xj7z9JTJXGez9v2nT0qWbm7M9Pe6xkKhoTEqFrsMB0sAJHm9U4qQWnceHz99coOc0NTYNj7LG/Ly+cdHXAqeK9wXGIu5BYkNaGYJmOu8QFOBaK+320nyqbfqnacgYgVrjmI9CzTo6NSfE6W66vXb21js6emf//n6OmuyQSZzf0+p7u7i8UQi2v4PipCazT/8wWTCpyeUO/R1Kyi3j729xoKIgWJsepeG0iXt0noQbOWAIYAvbIvXnlxfw8kCwkLhVLJMM+t1FSS//XZK7Z2nIJKf6r/QV0gTxOJ+fxoAaVIOXhb5cXfnRTfZeFwIYYSIlwJaC7QVfsxiXl3FTkf0sjQFrjkd7zbwzY04H4rh/YKZf3r68OHiQkkCn8nq6jw9vVuQlTAkTF1TKoV8HyDlBf5iksNBbeh0utuNz1MQdZfSoWCussiocSY8erPiTy8iq4ipvVsonX68vtZvAu1ps729dbFcbjRKSS6ORlRL+7NBFI+PQSCm5PHRFGUDYVSEoHwLRrt8+GBELVyogRspE7T07g5qEZ46CTagXp9O3966UeWTvgI0lxaIYIDPU5BoAIu0HFYLwyUeyZrb4kw2Y/VU0hKM73XFOsES0wUASPkMc6vzhlil05eXp/c9T7TR+WBWTSzDYKXRAAlMYr0+8E4m4ipk5vtobK+XYMVP79xsiT9VBQC03e5UxUgspvVXSXmUmJyfqyCSGvW6zGA0XBzPHvZcLIZWVHURvZzXzId7Xg/ERp6bYISyvbgoSL4baRKL3d4+PBjbptw4oFEDjoX8jDU6RjokFgt4tHoaRYYPEGKJP68C/rkRUnkDkKJOzCQkosZqqOOLmZ7Nfv1VCbOvh+cpCL3xgi8N4gZDR1m+hk5lwSUfJqbWT5tM3qbTQl28SBS7RzxVJtMF3dlaY3QQvSZmFIuxyM3SHU7UNfS0hzAdUQlPCq98ZfjN3d2F2BeCdAr5XeuiRZPozZAK3X/+/PLl9PKA9e48BWk0Pn7Ut8VVsbGGOxSLp5FEildarcdHripqo/hgqj5PZ6oAhTFxnKs7wXDbvXF6hTwTrLWrIDHFtz48iAasWXV6uB7D8C//Ahd++qSiIeLR7nndh4f+qS5NVY7UIfVqjE7tZcqcjVOP2JTZeQrCuirPoxUeKJY2kdACUfVkwQeXgA6vr+MYeCYVlPN+Izb5+jqVaoMoNAjfKErFTORyCfIjx/CTClsgF7Tv/e3tp0/p9PX13d2HD6r/lZN9+hQi5VRqMGBE3FgkhMKqdjtnJJSUPvpRyuQ0hfE8BTF11lWjMWziKP8WhDxOrw5H7kM2/OkpiZDjK/v9X35BCxUKv//9p09Bp8S+/KPrA5jWnMn0ve2R/bYwmF3q1mtgGpnML78IDh4e/vVfdUKfxI5e9Yfxd2ZB2P29LHPAS6Z3qXjXtiZok7b/W9DoGaChhHUu40JNo0pF3tEwWa9qenq6vLy5KcGiJnbx7rIN0XO8u5tEDTus0ONj9LZ1ZMDANb0ZhyOK3gUOeYWliju5lPv7iwvpaQA5FovzNR69AbV4mujdhML7gRJwGBgvjnFcLIbnKch4rD2TCsq24atPEz7wirJk7JD6DpcM2gcD2QZPT3d3SCzLisfv79vw7MePkjbCbcYJTMqjxiO66+GB5fK7XHoIQ734iZ7+/vcoEwMfA1SIxUSU3qzCx9umsZjUz8L29TIjpd/7PQLu+Xl6noLwz2IwFiiaMUugejQi2x715/qawwh4NZ3my4vFiwue+v++Yi6IfXl5epVGgsiSxzBUTaWfdFB0R9i6qysLS0fv0r250TeFcUylPn4MdzEYxjjnos4mes3QaQZ6d3A8ygBNTi+v46PE75vzFASxG+We6YPaLgb7xPxGKEuC5+GBBlWrH6VpNC5fXrqkxamKKRaTNzcct70sTwpAW3dCSkh+H7FrJibKXSiY8n4EwUylcnXF/icSFxcB6n36lEx+/AhCCx/xLsyLSKbjtTkKteUKWaZ6fX6egnCWEvQ2vbNziUEcBAZYTJz7e/G3aeUVKtjreR2LoZfZrI3uhd4fwCivSuW+KQsH3e9nLy64e5qD3UKv/CX09G4EGnd5iax8fLy6uryMxbz0pnlz4wfQhhqz0ztwRym1URp9okpoZOR0OjpPQTodHeNSQUID2Qhb7EFBKlEsieVEa4zHLYLc3l5dCegsD4ufSCSTN7Av24kw0SACyySTRdGhvWz2lG9Dcj5a95bT4mk06tUV3U6lrq7S6U9SppeXoIqBzi4pxp/P6+y4ljwJNbtflrV9noIcDpGlRPLaodBpsLnUQwGSzctVIRTr9WuKl8n88Y9IkKiGj+qocWnc3oKrdrf4hWMMtgB3K1MV0Y9GWwKQQbX4yKurjx+R7s5+e0uZEx8/fvrkRdpgkyaiqC2h3T7oUZV+VmyIUkulZrPDeQpCCI8PVwWiSRWG8FC6CKdlJUDj9bX1NhnFfDjszV9+sRavzAnwzg+iPlolhNHrX4J6orlwYdfXMGUU8dirScn5y8sPHx4fP37Ev7AIDw+/E918+CDDHL3ZXar/tM/9w0tGA2EUgi4W+/MUBESpnSapMb38nlAvS61cGWZnKNtt13gSC0n2XV9fXsoKXlwkElxkptdT6epzhnREY/iCJ8SBCYwAH9w8SpGjq4OYDw9KKG5vpb4uLorFgOA/ffImMT1DvJ92VLNzqtWmTC7ijUAKKBQe9s5TEJwveIZtEvbiUsbjDAaegRRiYWfB7GAb5TlY2Vjs97/nEvHxGPMSrWGqCa/hmQoE24EC1ieggkFSKpqMEna1edSx2D/+o/z9hw/JpPsXQnkvcfv0yfYGSzToRLNBdzY7lW025XYxCqvV7DwFUfNhfNvdnXWjeZPJYDdhPcRjLvfwICrCdAQQYVatDMft7cUFi5zLUbZisSPzpMjEgE7YHUNZLo/FuyyAyRLIBDPmdbTUKNXNDaP94QPgr67w+vqUlY9ef6HOU1LEHdntxsulymqgUXY3enHq898I8t/7OD9BzuH4H0H+qx1nI8j/Adl/UQXsveSlAAAAAElFTkSuQmCC;" vertex="1" parent="1">
          <mxGeometry x="35" y="40" width="200" height="200" as="geometry" />
        </mxCell>
        <mxCell id="6rzzWLgIkeYkTLLRdGZp-2" value="" style="shape=image;verticalLabelPosition=bottom;labelBackgroundColor=default;verticalAlign=top;aspect=fixed;imageAspect=0;image=data:image/png,iVBORw0KGgoAAAANSUhEUgAAAMgAAADICAMAAACahl6sAAABL1BMVEUAAAAApgADpwAHqAAKqQAOqwARrAAVrQAYrgAcsAAfsQAjsgAnswArtQAwtgA0twA4uQA8ugBAvABEvQBIvgBNvwBRwQBVwgBawwBexABkxgBoxwBtyAByygB2ywB7zACAzQCFzwCK0ACP0QCU0gCZ1ACe1QCk1gCq2ACv2QC02gC62wC/3QDF3gDK3wDQ4ADW4gDb4wDh5ADm1w/m2wvm3wbnyiHnzR3n0Bjn0xTowDTowi/oxSroxybpt0fpuULpuz7pvTjqs1rqtFXqtVDqtkzrsWPrsWjrsWzrsl7ssXHssXfssXzssoDtsoXts4rttI/ttZPut5juuJ3uuqLuvKfvvqzvwLDvw7bvx7vwycDwzcXw0Mrw08/x19Tx29jx393x4+Ly6Ofy7Oz////k8KM6AAAACXBIWXMAAC4jAAAuIwF4pT92AAAWEklEQVR4nO2daVdVVxKG020UFaMxGDWCCsZc5IpDCwJhEpWpLzigJqRNnJL+/7+hd9Vbb1Xtc0l/6rU62Su1FnjFfDhPqHnXrvPZvxuRz/7fD/C/kr9A/miiIJ/9yaVFkN9++/XXT58+fvzw4d27n4v8C/KTyuHhj0XevHn9+tWrly9fvHjxvMizZ/v7e3uDwe7uzs729j+LPIE8fbq5uVVkU2WLsl7k0aONIo+LLC+vrKyuri4uLi19n2Rubn7+4cMH/1C5d+/OndnZ20X6KuXD7Gy/PzNzq0iv912Rmze//fZGmyCfPgHk/ftffvn557dvQXEoECKCISAvXwrI8/19wRCQ3V2ACIqB5MeXz+vrCUO+Hj+Wr+Xl1dW1hQUBmVOZn5+bKxAPFOGuimDIk1OUByDT073ezZsCMtUmyMePn4p8+CAgb98KiDL8+CPU6ocf3rx59UoU6+XLolUCsrcHxQrVKihPn0Kx1k3w+ZEIICBQrgQyP68qpTp1//59AblzRxQLT+4g8u2WCUFutAsipv7+/bt3gnF4aDb+gwkNXazc1IoYYeyKAcUCiNk5H14En1ZUCsjiohg5MB64ld8TtaJiyVPLd6MJEJh7oyAfTN69E9WCPgVFUayDA1Uqlf1s6ARx19sFKaoF415ZWV4GjDnf1TXBCLUSncJ3VS1B6ffFrvHkauyBAnPvqlYzIO/fC4YolgRDWngByGoFiD2IKJYA5GC4CRBxuWLfAqKf8PAiBFGMNTV1YtzT57+HPzIIMZIIhjvgdkEiGLpSIQyGmZuNDwbyx84OAfj8W6FYAEEcdGUS5cKXYBQQqNbDh1AoYNwFxp07SE6oSR4Q8SPB+O67olg3mgUJDFEsUlQgbuODARRLHW6OgZEfCgDzkmUa9+pqfBLPq6oFxwsQENyhWvUr6y4gwdbrNQ8Cx0sQh5Dvr14dHIRqFZ/LxCSUyuybDpffkZs8jsc3t6uRcDGCIVULDLcZDBkKIUmxQrWGjb0REMEQxXr79qefRLFEn16LQLUI8uyZ2Pg2g+DTKidx8w4VA8iypCOrLmuaK0pNtTQ3JymjgCSM232UUqFSHQccIBIQGwWhoQPk9euDIoYCY0d1K5FQrHwbGIBgrr6xsR4oNHiRZTpcc7oLXuHOq4ipI0sUCy8UOTcECNKUaf9jmglKV7WaAZGGAwrcw0Molouki1QsNfUdT9qjpl1fl8IppyVFXLkiBAqGKBbqqe8FQtyvgNC1qse9NSTy5D0AwPWirOqqFvsm8vugoyq/kRpjf18wWHkUidKcz/6I0QOWYiBSfwAB3gopllbqDx/CQqJhMpMjB//3wySK4A/8NiSKdONIMyBWox+iPIercrWyCmSfCe8TeitYCGzEVStwgKL1CHwVMNjAmkclMgxieVW4J+hS0SbUhFarU9oEQYXOAkRANHxArSLvtQAShp7KwEeGgmYJzV3/6fHjiOcSPNDGEgbPs9gy0QCCmAFfxYDhop5KMaZUGgUJpaJiiVaZmedGr4SQHYkhfPwMshGqBRSLJqwIaeahU+hjGUjVWMxuN/la6tPU1OQkvhoFYb4rFh4FyHOYOSt1qNYO8t5uq0RRUhB09dKAGCAwc2/zSiiUutCyrP5MNnSG8V7vW1AIiDz+9SKTJlOtgkhiApU6cBtXdRoM2DlhG2sHedYwiAvaid5gZIISjV4WIakuTI3eGkScr8U/gFy/fq2IQChOmyBwuIJADC3QByrRyKpAGO86ILmtiBbvilToOVkUGG0tRksxpSfoltRNXvO8Yuby+AIi6qV/tgmSlcrUii1FQBDDjkKYMNbFhx1IRTm4xtQdqSKOQ6Be1lykkfOosGonUrn8uDBArptcu3a1XRA7svWcfZ8sxKiOQSIgOgaMW4+i2CZZBIFLHBgqCI4JWVARpB/t3TogTjEMAgJIjYIwZ89Nd/G7jiOtLG9kbaUmL+sor2lRQ0m2jicvz46PXeebFEtaWPS67n4Fgym8ZYkWAhWIcq1VEGDId6iV+t1QLjQXGQkdJGck3uTN9ZMJ/xLHIRoLmbrnHkP5itSk18uGPgSi6tUmyEsXVLZ49kHtgCuQCInMSOwYRFQL+XpMNMwlpjm2eotmzc5G5xDPrRbOdgNBRDRFsVLK0nig1Kr1woUpr8V0nkRnkE3ByJ4LzsqEZwaS6ErRYe0SUsE+0CPVEZn6mYEyHQDy+6jiCFDwWxGvNdkmCPNdYngQCZA4SagOd3KCpYJUV4I4n9s1LLJejAQoBoIE+yMKE82SXKqnxgnrdY3t7YJETEeb1zBqkGgzPo1MiwfQqwCB52LY0OfPakWMYukSKOQJrSDXTzfjLzdu4Af8D26EqYexd71WIyBULOS98uyqWtSwrFp6HB3zZUDRGKIMKxFLlpbQxJqnWhGEAV0T23hmf356Wf4TPk3xx4BgztV1v42AcFrmmQkYhiaabHqG5g6DB45GwzD2NR9hctVC5yTaiiUKJq/qIBrA0SSBHkkJMkWpY3vDIKkGSfKM3jhnW9aNr0Fg7qpYgoLCMNpY8zYH+wCNdylBNL/VwTE1XqBYBzEKDsY9R+E/8D8pRXubIDHBRPtWxco5S0wrd5SLiUoBiZBYNRZT30RPPTmY0QtTh21bH5FPyXailOiw7kn2TkSuXtXvbYKw4R4iaMUXx/lIQolT3c3NUDFL5hkS19ZSTRKhUBSLFWA6fcrp+bWsPWyaWONEHv/q1YmJqyFtgjxLdi3Pa6rFGBn9eJvITNmjJ/R6fMs+IxNHBYGhMzVJIExPoFp0sMP2fA3Prx8mJsbHJ5I0ChLuFxgJBP+AMkvr38FuylbSjOz6+iN2tqK3pUkK+4po9ML1ak8354dRLKVGIkGgTxP6TUHGx69ckT+PspEmQJia8ImB8jxA6jaE1r3M6Tl6VlDEB9fuV1OUPFmGfoOplg0qpYrJNIrN9sAQGa9FUJoFiaNCjF4aCnwAcsiIlXsxvhwo0iKyUUyAxCWXIVOv3C9S+Hxaa+ZNEHhb6NQ41IoyrFpNgXBwP4FQtSLD34/IGMPkYe7rOB+J/q8eqLP9E+MNolzTnYOPUK1wtjXIBGkQENX5dkAq9c+/EQiAUDwqjCD7raq4pAAQ+CxmWsVhxW8D4vO8POdkHLE6HBYRKdVELfBXhtEqCB4dYYIgLEosvnOcw06trTR5Il+pftckWGt2nrDdD3+FM7Z+nzcLzXVJTQIQS3JTHK9AkreCNA0SgTs3tCzEB4gZfMSRJ2kMzUDgsVCiw13pmQ4qw1CsPq7rZHO3WlxMXB48UMy2r5jQe+mPWwdhVE+liTVUvKh350sMd7+II2tr+V7IXUqcs1WzTOz+5nxrkk43o5Qn/6ZIoJjJtwpC50ttUpTBIOO4f04trgSyvm7jAuzEs2lSJIPU92/9LjSyLgcR5SKIYYybYgGHRt8wCBUKemTKFdER+ctuvp2bTd0qRElOgEHFmp29kyeZZmYqkL6ZfJx6evMqXDDzXmX5xsSdcMsg2bYdhHkkPu2y4ZjvVyE3KXrFUBhFut/Q4WWEytiFinfY0kl09LWYNFpBCJCsXEcZeyMg7PfS1P8LiNbrXhWup2kzporp4BY3dCJdnKkl3yx0N5xBRMUIMk6LD9XqdlGaAUlJopv6IB4fRTple3s7D2emxsmC377lGg1folHdcyEDUVBn0QlbM0VMncpVFYZULwuJbYJwyIEO2HQq4iSt3Ib8NUHkpTZvmyzwzBDbAu7ft5wEjx8Idjc9Wz2mUczYaxAoF+opA8nJ47D7bQZkzyPgILSKEDs7BNETK15G2vCLYNpW9F0zNsdkg345G6H0Q7ID1tQRIRHh0Ob91ODHmaIwLOpf2wTJ2QiTxxQBAeLrHTD1ICDcFoDejx/dVs63vkgRGxyqtLGTpOT5SyQrCiIPf/myfL+kIp8vH9FFoZXw96OPzt8KNutokgWfFUPXCYSLQaJxYjZR/0b878EHEDv04QH15GTUh+UXcrmIPP6lSxdV9HObIIjm6JDuWSGioWN3N4NgV8UTRhEOXiOg+wmC3Pb0PCsH8/oCcfkeRHFp1UcXAwQxRK2DCF9/fdGkURC2E3HK5j5rx1Aw9atT8ZL2xlV8eC2CWFQX4TXi5Ji4OOcIkFAsBYmm4+RkUqwrauqC8nWSC22CSNOKo06RZ5WHD7fLIt3GZe34cyOfsn0fxi7ul4rl17oxBlsZOw2dzpdHojYz44du2mdMIBdMxsa+ahMEo4DAwcmOgqR8d5snbcXKURMGiJ+zsVZHtc4iPVlzr8dbCNWPORfbcb4ZRFUrMAqAyvnz59sE4c2qeoDZUxM2TWKKZotDmcvp7HORqyjYgE+3dDilDPG4KD/OJ1dJrQKDRYgmJhcvAqMgnP+yyLlWQXh7JJ9HW3WIpglB7Ghq3e7wLC/HzTYHySljvz8T6S1lOiR2OLihc1o8jkAlyy16hVB44QKUqkCcO3v2bJsguPPGG29IVNzYY5ukHYQESJ5qKiDsoNQJyi2CYGUDQHp5sJ+ViI9fYlCA8zNAUZALFwByXkVAvmgVhLfeYox5gGMpkfr41jsoXFXIK4clKnZnYlPuzrgH+3Yto+sNjDTaFBhq6QiEMHU19HNffHGmbZC85CGVU2m0/6nx1MqVQHCSy5m/XKbfAkLYuN914YCmVbj1qQjKc42FEQpFrVSxWgU5OODt6Soksm/CDVTy3QaYc9e3sxwPpS7mYiNXrDyuqVZsOQkQH6hBhxFtE9S4DgLXK4rVLAhWUGHPZ5rFzJdfeCG0Ui0ql7tfhMTYz4TLYNNUqnrzTLV3xi4accSpKqcU5CIKqrExGLqoVcE40ywIbuvmFCVNYcZBoapXuF9MY/rNFwwso0WHpJGpeicnsZthoVjY5IBjQ35LinWRLYexMQGBWp05Mzo6DBJLK3jMYwO+9SmbxRHerQqvpbda8xC8ZFva1ZqZrr0VbhbGgKlNmUYLK1XpwPAynVkW/NXoaOMgzLQsz9qtQDzv3Uq5Vg2i973zRRHv/crjI5KEo0rXCwniBUjUhFQsK9LpsTR+nBHVKtIqSNxExEaw2D1eDZJahRhXvwHCqwmdYwW7mhBb/Togdu/wJoYy08h19lepaYKsVwx9NKRlkOj8emOxM30Z93e4A55XeBIIYnvKuJgCs/DgJQWXiOlWoiPHunwZ8UN0SlMs1iCmVEVOnz7dJghXuzCmc0zjST196Q2UvJWfILqpwneypeHrfu5rccIsQRxRpIfbRRS09ApVeihWwTh9ql0QLIaPdQJeGDIncb0K5wvVsq7Woq+rCINXFyxJMCv26lZ6fYsnJ1ffEIIlurVMkJiENAzCVf1xuW3oHS9bW/nCtCWNecnDUr3aAamjLRKoQaZCoslLjbps1YcKomCFIQrF76dONQuS63V3vzF9GRgKgk48z6ugWEtLjtIJivW0X0zFxm6TIt4queQ5e2QlKNDVzOXxifF7NtIACPevYmnb3p6DsKRixb6Vz0a4/tY3T8WWB56SaH+Lxl613KeGpv3QTjSEujxnlngmEI429mZAsGQyCivs+qzmk7mexmb5qxJ3SRZPeYrC0/b7duNC612mizT21MKKOxXwun5AGDmied0w8vSpTZBYxAoUc8CpA78ZC4NSiUszH3472AOubFKQOn1PbcWYTkYg1P7u2BiSRBg5+wymUaddius91VWthkDqlf3WZIR+cZehz8cGBhVrjuvZ4h1IeMeLGHs/T/FLAk8HXKUlEgPRb//KD2zP08zx5KMBYBCnTp48eQRIxHcfO8Om++6q5Y2MgeAhBIaCVb5xtaoDQhspJWHuwrFZUgjOnfvyS5wasPiQZzYQfXgV+dHJkyNtguD9HNHG9oEBqha2T9FdeZM0NjCmWNI9oE4jvdW1nUn3VyzOLXQAAVInWKMBIspVMEYaBcmbsBHdh0CwU9kwuJlfABYXfUP/8O6p29x1VG33iyugE3aXDf5K+rollOPxRfgngrrpGFBGRvC9WRDuX0alaEOaKEowYyaLKTCzkSZ9gYGvUiGyXo83ZeqNnXyxDXtDUhSBsYupi2IpCDOrDDKKTm9WLsUYOdE6CF+noB1HuSLNsetomlgNEgtk/dUoMXaGMSd04/36ZxfEZgLQwophGZw6m5xVQePkC8RGgoyMNAxSY7ALvAeQPB2gjcXV1RrEN35Wi0rv+sBA9HzzlVzDoOtFA8uMnQYOBcPf3OZp7AVCpE0QOl/W7i9eaKoyGHDHb5SEq8MYR4DwbbLWZOz1ohaJeuQq1UpMHS0sbZmctYYJv2j4Z7Oxn6C0DMJFua5ce7bagfMBMRvg73ehaCnCN4pw6Yatdoh3/gWI+l5gsHPiIExMwvXaZ2QqSa1OHD/eKEi8Cy2MXU/c87pigvhKeIZCZovz0WGM0TNzv0eBTOSme3K/3jMxU/dPwyAFpU0QvHUkg9j7R3BUghOSCmR1lW+mIkra0la/eWcmCqva/XLCLymWtrE8ScRowxmqWTL1EZOusTcEEpvjBcU7wZLP8w11ACkqlUEWF8PwU7dRUDwopjde3+CCVVUtFrkX6wGmXEpFGm/n6nWC0k1RmgHBawMjHHIRynM0HZmoJBC64IWFeKveAj0xu78WFBkQkTjihp52ghgOOfdjcyb5WAqpvCmZ/IAlFWC6qtUUCFPGNDQLYw+QjQ0z9jUXAeHfV4nCLRx2zn7Li12mjnYJDKaer1LopEkYe3bAVeuBMN1SV15GkA97bLtOnDBEVbLCyWscuS0sOAYNZ9En6fzoLV73gKMeAdGFLfWNEJtVjAoxx/ZSiqBeZ9XeOEi+q5A2/3LbEasSeK6VrFhAWIkR+djjbzetYl0/IzxU60pg8D6I9bJyrhUw2m6UyB7SMEgeAuTd0L09e2crQbBo2e/nEgbv+dbSMZQrQPp5Mh7RBPcLDSROoL27yO5JYDhI9LWOiiPNgHDEiTfZB9xZIYoV3S1/hUK8ZAswWBe/wmolblspyMxMRhEQzPXa3dusWGeznPGAbsV61T2xeuR4qyC8o5u3I/gdxKjbeYXHQWju6f3SfNeFZMF2YjXjc8wCYnF9Ypwg+RzaJeK7n7VFMBwZOa7y+efH2gTJ4zRcPFVsnPOZPAaNq6DmZ/ndAyKTMBSMUpWUJIWqRRBRLT0FveLmHjcQKgycQqcDw6xainGsURBi7Nmbt/yiWx5djqug1SuxK5S8DXsIJC4cYoHLBLu+cQfBZmeoVvkQ11NFmnrjILFbp5ojrydkNRw+9qQxo0hY/D3V4lWrGM5EzV6dVVm9Lhkji8E4oEox0KoQc77Hjv29TRDueRj4tSqb/+PUn51VLVeqxXwklMtzSZZWugiJizimY9FG3Wn0HmNM/FG1OhnJsGr9rVWQWrWw2sHejB2vM12hRLHLM6sKJVIUL6xudc6tjgAZG+sYe87ZjUK45KNAiDQMwgTFNk/hKFdM28vblarLiKKKvQbAuEfOpe7t2zMc748TK5uQZacxppT1kguVC0GQGpWKqRMnPnep3e+fW9oDaUH+AvmjSTMg/wENpXO9zfjuzAAAAABJRU5ErkJggg==;" vertex="1" parent="1">
          <mxGeometry x="35" y="240" width="200" height="200" as="geometry" />
        </mxCell>
        <mxCell id="6rzzWLgIkeYkTLLRdGZp-3" value="" style="shape=image;verticalLabelPosition=bottom;labelBackgroundColor=default;verticalAlign=top;aspect=fixed;imageAspect=0;image=data:image/png,iVBORw0KGgoAAAANSUhEUgAAAMgAAADICAMAAACahl6sAAAADFBMVEUAAAAApgDy8vL///8ftJqMAAAACXBIWXMAAC4jAAAuIwF4pT92AAAE/UlEQVR4nO2b2XrjIAyFS/r+7zzzpY7RBojFNpF0LmZaAtL5HbHYTX5+jejnaQOrFCC76Q3y8+WyCPJaq5TQb1Ij/31UAdKlt1tomdjvp2EjAqQ30f+WJJcVax6SF5BVUzEHSon+n5ak8QKyUCmX0sILdCpAuoV3xwR+WkJmHUSIu74aeOSJHNZBpCzrJRxUhtP5AOGHikG9LTZ60J2yL7oTkLG44pBWGDjhh1B8gKCTXm/4saocrmYfICR85V51WtM7cAUEBUrCDd5VGsrjAUQIz1JAukL+ti15leuksQ/CCkto7EvVob+LtmaymwFhgeet1ZrhYsKeuGhkGWTJDVuWbrKn9EEZLF/LIHcrQZF2fRS3IIsfE6J1FjtPfSjOQC49LrLYvMoUbpyBXCbhFPr5V0Cp4QXIQkmOCx3BC6T+AqSR86LxCATtpdZBRh9K9btNqfCqeP8rNHW/I9ftJYVtg96UVieOR5BrVanKxh5/dHAHctdTxl6dKHZBGvcAw48TlwuvBXyyGwGpTizhvvouFW9Mz0arIIp4aLjSw/Xq3BDNgKChe63JAbJck8uIJ5Cb6qe4tKPHjzNPUcyAaDxkL8PDJzdbdyDNwyK9Me2W/gA09ezXDMj1qmBo6NyB3HEaIdWpnvvzj4NwoknW3hM16R8gVSfXFyLL4BqkcgN9TNAHblSsg4w6ee6e0TpIw9LIn6b0Glo17IOMehhGmbwGAbKbrII88bB99tbyT1ZBViygt++l8l91zYB8qwJkNwXIGq1b7B8FmcYAT88DZDcFyOO67knjzdoJZOVJO0AelXAFAuRRBchen2iCKn/KtDFgN3WDbC+HILsW1yGHIJsrQHZTgFyk4SUlQHbTN+8jyJFDkJ6oDyhALtXAZ6Vsg1S/NHBlDU3ksA3ymNBXRfpGBMhyjXx/BPQPkEK8uQA3fKNH5WNYT4P8fZJZXxGNfsUPRmuC2gdBEfMvJBH4Q3fu0mslB6vuxHXZB6kkQx8wLqTpKJE1Rx63IO/MSag70tT3iXQ8zQtVXZdrEJIfnfRUq3FhTk/tq/0gICHPrP2aqvCe4OshNNblFCQBiRhHl9yXvVqseupa6FnDcgoCj1eHT3hwPb3nl4nTzChGrjS0atY9yOuVqLUzUeFQXMWg3lHpalYQxyBgsgMqAIL8EjfULwCo0rWXYbcgIDIGAI4hMBkomqIh2KgAaUCc6WFTcW6jURI43wo/F+oTWeHLGwiPdS6PGYekFQtFtMbX1qNqK77Zi+5BXvhQRzDAIk0DfcoqL90kCxqqKysvII23trUo5g7HvxSH9ISEJ44Wwy5IY2jCbmTHLYlFxUuR96rKKojkV3DC3vbipoiMwQAk3CcqadRPd6sgqmFou4KTHjgRfUCf6KcEdI6X0qpBtBC8xNk8EZc1+j4W9h3yJmkur1sQhpGYUB9xb2cv5ga2uzfma4AI24CQknDVQqEQqEoVAcyDNIehGYg90w5sjvKGXF4UA4TRotgE4a4FlEIVITdw8UXrsQgDMYB77cLrBQSUC20WZzX4HfOdjouFAntlWnRxAkRMhiOLk/0sFmpR9A3swyuCLoUOwzoILBSSG09k5qOVTprAiap76bUPQqoIRiMLZS9Iga6Iog9iHQT55/HeOUgNDINIm+GrG8U2iLiYZt9HGkQFf1JmBxcKldPYhUEg3y17IBYUILvJDMg/SHArWDDdw38AAAAASUVORK5CYII=;" vertex="1" parent="1">
          <mxGeometry x="320" y="40" width="200" height="200" as="geometry" />
        </mxCell>
        <mxCell id="6rzzWLgIkeYkTLLRdGZp-4" value="" style="shape=image;verticalLabelPosition=bottom;labelBackgroundColor=default;verticalAlign=top;aspect=fixed;imageAspect=0;image=data:image/png,iVBORw0KGgoAAAANSUhEUgAAAMgAAADICAMAAACahl6sAAAADFBMVEUAAAAApgDy8vL///8ftJqMAAAACXBIWXMAAC4jAAAuIwF4pT92AAAIvUlEQVR4nO2cjXIbNwyEQ/b937mtLBG7iwWPkj2TCApnEp/4A+xHAuBVzfjXP03ar98t4KfaX5A/rd1Afr156wgyoY3Vbh++/kye8ZgVg2v215CakgZD86lmbH0SyMAupJhegfCJXouBc8HMlgKt/9fbGwT93/6ubFYxV7ZyMIzF84yhZJ99tQcBBDQUTlandSS5H2Y2QBiO9ye3SffP3H2b/qEgEkuS+xmjKMCg1teBXSnxnp4MrXcFuetGMhboG8svtaZmd+6ojYvQensQcctsJ/bDQBRVyWeCwi7wcQhyM9EbJLT4I8+WiBXXIZZIi2nkDnAOQNaK7iBkl1SGdomD9URbkHYFoy2hp1bCpILSHcTISZ8znVEU4RUPSYUBgUpzGdO3eT1BciykqEiEWjXHoC4qFWyfa0ECoTlblMYgOF60zSAtVnepK4JswMPGaoVxBmKtLxOOELYSl896b8EVduD1c50nu7ffFiBUpDJGggX/QJQTrICgTOJ1FoRScn4USAotI8+KzFPK4BjaBERrKS1cH3qDJNOctiAt2OLPhBmwskbYVHsUsG27/7B6c5BYRDbwfC+vW4EBo7jwjIAq+ExGVusLklXI8u1J0wBGXVqRhdYgsaKQNzbfa7UAwWtoDFKXztnBjNTx1afxedbs7vFwXbXeHoQ1fM2T5L7AgHkCzgsj4tYMg4Bbupwj3TLbEyTHxNISdspTtjAkshquWjEzL9TQagPC6WhsGjVonTofO7GG3DaRfQNitdu5XUGcO1iaJqjTNUwIIVxb0mMx9NlV774g4cA4I0UYPVAH+Z8s4MAOg40kpBdyJGaaPUs7jHORVY6hQElqeLvKoYMTaQbC8ohOHMUj6hYQAyF3BEuz9Ys37TC03h4El4k7dMI9mOZVTpsPYE63Z9lWvWv3zHBvEBE0TEu102gOYfIxVQBedh/gOguMrOkelt1BJH4Y5m6ThwwGejdca4C51pSoATb7JcR6g0yyXrd88Lc1GCKpW4NPzBTQYQ5WnFWttwbRo78v3dMs8zM3dJfELd0bFGfM+shfPrQAUXEExFmdurJj0T0hvXkITYExEz9fn92u1VWrBYgg5PKbqoDVLRUD/aOhma0DSHbpMC7ftd4YROeQF5GIDiTMxDd2buy7bZOuOYcz1RSEDx+ccJ7eu60IvLAU/hRk04o4bQuCnjGBwcIDyTq4D0bWE8gY0qEDpJS/dB9slNVUVasFiBbGwdbCXbJHzvDo189NiPGO2I2CyVxX7qvMN41C79+1UvqUfkVsRqFtT+akGjJ4exCvdbK1NVzGgUOBiDPpsy1dTCdTl4GeIFpAQAHT3brZSeVgyRTxJuElirwxCvUw5C7EBiB8eOSYB5YOKuUeIjWbwLhRTE/rIEYn7aTLkYYgRgE45aFUkQsI2odsN0gtTK2oJ0hYIQOU9/GELoa2C88Kl2KZPJjCgEO3xT1BypAqyqmfuKrxXn/owMiEtdUiic37LvQEyVVwl2pZ6eLbhhdBRIlAt8tIARL219KeIDnnkuJN39BWr2ZDGFImry+c7pK9CUiydhkkBsY5tCrS4nK8vGkbg2ACnojWpwLjyqCGIlngOjvdh+YgR/fYffm2O+GodprEwmqXY3rwky+xX27bukVqVNq15biAqmT/KYr5e0FOyv5LbSnOGP7+uMDQHMn/ErsFyHOinnRsjMCb1jP2I6Aec1uD/Gi6o+uxHpb2+0+Ks+CruBK6D60WIAd30jdgGEPA9kvTZQrY99YT5NjWsw3uPczSFUMYVpeeIDLB9ieBnF5YJ6zJ/xwqH8ykjOYdwaf696I0BJn5Snsp0LTCwoVYWHb35BjM9DD9GSB0yim8juKtQNp2Ll9uXqrc9/34DJD7UnUXVfQZkJS4W8XUXdZluBo/CaRUJqX0FEwrp5W26uymsuDgJ4JwMk48cPH+ZJP7UZwWNiPVPwIkLY4lQ9ulyx3CWBccxxsE1nY5TNj+5sy0bFXtkarQKximag06H7m+J3+AmnXxK0DfFoRDZT0pxv3z6yAiL+TQlbGthQTx/8+uINnR6tAclwwV8DJT/RpQjTg1Cm/sKL5FeXsQzDUurJjkDwwnL6kt5quifSuWkcieILxIzlj/hgc8/sEuUvSECqqyJUCBgWtuXZ1BUBItZh+DOxlqyOI558iG7pocwXC/EjXhgJmeIFwF5eA1XFJFXmt81QTpYkj4H54wFKdrtKIrCI+D4VCx7HoM3gOuGIggnRZlA5EEfA4IyLGK82yV8rBA4yN7yqYYHmLabFJvED7+a88lFWoALh7Ou+AM2MAC1s4gCjOiowAp+VD3IJtL5hgiifYGq8sWqimImzrGEK5K9RZl+lcUymlZqdbt1q528L2WUXDVstrdlCcs0z1FG9UZJGau0CrEeOV2GBTgGqiKaWblgzZp4XQFcZHwdGCVEMWEUHlaHWduPUHCFj+9cIeo091wgMSK0u2cDqMryKMzOfpecBUAqj9r9zVGkD8CBEvkjP819qMg4MF1VnND4ElotQJJUIcgK09PZx52PUKxaj1B+G0EQ4ycvPr6WAzaGfJ2mBD2odUQJKFgul++1tmh6UevdsWqPg+ttwfJl9DtOQ40+c7d50Whgsug1zi9QbLI9ZJykujldabScXeq1Rnh4KWxFYgRsBFXzq/GDoIJfensvyBiw6o4fnf59lunBPpJjtjItdFr3HkFsA+vIPEbB6bMaAyCEwuXm/gtQe4GvxtadE/tQ6sNyGOG0f29NB/Z8lZrDSEBteY3Bom7FBY+6/fpSSdtEchF/1UHeoLEmZ0IOnr1wpfXasoxSHGz37p7gmzeQ7JVM+/Hosg4g5BPr8N9QU6D6ikN11MOjWhEwV62BWHPr+rXu2ub6AeBXLwqRldzkBOlO2Ej6nIJ8uwWhd61HO+J22hPkJjxulOjeRM/J4FVpjoN9gT5lmSnUFKTX0jPUn2DQLYJ5L1bP5AO7S/In9bagPwLDNDz7Kg2MJEAAAAASUVORK5CYII=;" vertex="1" parent="1">
          <mxGeometry x="540" y="40" width="200" height="200" as="geometry" />
        </mxCell>
        <mxCell id="6rzzWLgIkeYkTLLRdGZp-5" value="" style="shape=image;verticalLabelPosition=bottom;labelBackgroundColor=default;verticalAlign=top;aspect=fixed;imageAspect=0;image=data:image/png,iVBORw0KGgoAAAANSUhEUgAAAMgAAADICAMAAACahl6sAAAADFBMVEUAAAAApgDy8vL///8ftJqMAAAACXBIWXMAAC4jAAAuIwF4pT92AAABP0lEQVR4nO3XS1LDQBAFQQnuf2c+AQsMGMvBeEoTWSd4uevenhdpmz3gvwKp9Q7ZTt6KkKcTB1ILpBZILZBaILVAaoHUAqkFUgukFkgtkFogtUBqgdQCqQVSC6QWSC2QWiC1QGqB1AKpBVILpBZILZBaILVAaoHUAqkFUgukFkgtkFogtUBqgdQCqQVSC6QWSC2QWiC1QGqB1AKpBVILpBZIpP0zkET7DtIKpBZILZBS+9dApgdSC6TWIpD9MpCpfWOATA4k1A8GkGn9hgCZ0zUGyIxAWl1ngDy2vxAgjw6k1C0IkIf0Ou52RhxyJJDBHWSADO4wA2RwICCDAgEZFgjIoEBAhnSYATK0OxggQwMBGdJdDJAWAgQEBAQE5CMQkEEtA1nkaHxrGcgyjxUIyKDuYlxAzt16kBUCqbUM5AW+tyvyuWPu2gAAAABJRU5ErkJggg==;" vertex="1" parent="1">
          <mxGeometry x="320" y="240" width="200" height="200" as="geometry" />
        </mxCell>
        <mxCell id="6rzzWLgIkeYkTLLRdGZp-6" value="" style="shape=image;verticalLabelPosition=bottom;labelBackgroundColor=default;verticalAlign=top;aspect=fixed;imageAspect=0;image=data:image/png,iVBORw0KGgoAAAANSUhEUgAAAMgAAADICAMAAACahl6sAAAADFBMVEUAAAAApgDy8vL///8ftJqMAAAACXBIWXMAAC4jAAAuIwF4pT92AAABQ0lEQVR4nO3c223DMBREQSXuv+cA6cA2Se1dzamA80GAL/B6lXTdPYBVgaT1D7mG1wj5TernvUC29iYCZGsfIEA29iEDJI0BksYASWOAgDwAUjPZQUASGSDLESWQrxkgeRSQJARImAEkkAGSRwHJYoCAgICAPA+yDgECso0BAtIGWc0AAemCrGeApDFA0hggIC2QXQyQNAYICAjILMY5yF4FSBwDJI0BAjIYcoQBAjIWcogBksYASWOAgICAzGKAPAdymAGSxwHJIYBkUkBAQEBAQEBAQEBuhNSca4GkQY4yQPIoICAgILMwICBDITUPz2oghxggIEMhxxggICAgILcwQEBAQCYhQPIYIHkUEJBhkKJb3RpIyRKlClKz1S2CHMSAPA9S88ELCAgICAgICAgICAgICAjI15DZ9UEaAkmrBvIHLYvz8TPEyBYAAAAASUVORK5CYII=;" vertex="1" parent="1">
          <mxGeometry x="540" y="240" width="200" height="200" as="geometry" />
        </mxCell>
        <mxCell id="6rzzWLgIkeYkTLLRdGZp-22" value="" style="endArrow=classic;html=1;rounded=0;strokeWidth=5;" edge="1" parent="1">
          <mxGeometry width="50" height="50" relative="1" as="geometry">
            <mxPoint x="200" y="120" as="sourcePoint" />
            <mxPoint x="360" y="120" as="targetPoint" />
          </mxGeometry>
        </mxCell>
        <mxCell id="6rzzWLgIkeYkTLLRdGZp-23" value="" style="endArrow=classic;html=1;rounded=0;strokeWidth=5;" edge="1" parent="1">
          <mxGeometry width="50" height="50" relative="1" as="geometry">
            <mxPoint x="200" y="164" as="sourcePoint" />
            <mxPoint x="580" y="164" as="targetPoint" />
          </mxGeometry>
        </mxCell>
        <mxCell id="6rzzWLgIkeYkTLLRdGZp-26" value="&lt;font style=&quot;font-size: 15px;&quot;&gt;Wymiar fraktalny = 0,3&lt;/font&gt;" style="text;html=1;align=center;verticalAlign=middle;resizable=0;points=[];autosize=1;strokeColor=none;fillColor=none;rotation=-90;" vertex="1" parent="1">
          <mxGeometry x="-70" y="125" width="170" height="30" as="geometry" />
        </mxCell>
        <mxCell id="6rzzWLgIkeYkTLLRdGZp-27" value="&lt;font style=&quot;font-size: 15px;&quot;&gt;Wymiar fraktalny = 1,6&lt;/font&gt;" style="text;html=1;align=center;verticalAlign=middle;resizable=0;points=[];autosize=1;strokeColor=none;fillColor=none;rotation=-90;" vertex="1" parent="1">
          <mxGeometry x="-70" y="325" width="170" height="30" as="geometry" />
        </mxCell>
        <mxCell id="6rzzWLgIkeYkTLLRdGZp-28" value="&lt;font style=&quot;font-size: 15px;&quot;&gt;Udział kategorii = 0,1:0,9&lt;/font&gt;" style="text;html=1;align=center;verticalAlign=middle;resizable=0;points=[];autosize=1;strokeColor=none;fillColor=none;" vertex="1" parent="1">
          <mxGeometry x="325" y="10" width="190" height="30" as="geometry" />
        </mxCell>
        <mxCell id="6rzzWLgIkeYkTLLRdGZp-29" value="&lt;font style=&quot;font-size: 15px;&quot;&gt;Udział kategorii = 0,5:0,5&lt;/font&gt;" style="text;html=1;align=center;verticalAlign=middle;resizable=0;points=[];autosize=1;strokeColor=none;fillColor=none;" vertex="1" parent="1">
          <mxGeometry x="545" y="10" width="190" height="30" as="geometry" />
        </mxCell>
        <mxCell id="6rzzWLgIkeYkTLLRdGZp-30" value="" style="shape=image;imageAspect=0;aspect=fixed;verticalLabelPosition=bottom;verticalAlign=top;image=data:image/png,iVBORw0KGgoAAAANSUhEUgAAAMgAAAEsCAMAAACxJAyMAAAAsVBMVEUAAAAAADoAAGYAOjoAOmYAOpAAZpAAZrYApgA6AAA6ADo6OgA6Ojo6OmY6ZmY6ZpA6ZrY6kLY6kNtmAABmOgBmOjpmZgBmkJBmkLZmtrZmtttmtv+QOgCQZgCQZjqQZmaQtpCQttuQ2/+2ZgC2Zjq2kGa2tpC2ttu229u22/+2///bkDrbtmbbtpDb27bb29vb2//b/7bb///y8vL/tmb/25D/27b/29v//7b//9v///9LguKXAAAACXBIWXMAAC4jAAAuIwF4pT92AAAFj0lEQVR4nO2cbXvaNhhGTZMtZU3WlKRrB122hmxd6yTLmEOL//8Pm/ViWbKFA1hSb8h9PhkhHukYvRouZeWBkH3vCoSCImhQBA2KoEERNCiCBkXQoAgaFEGDImhQBA2KoEERNCiCBkXQoAgaFEGDImhQBA2KoEERNCiCBkXQoAgaFEGDImhQBA2KoEERNCiCxlYieZadWC9vsiw7/hK4Qh2+XWSj66ezDRARHj8s1mS9e7tB4RsRXaTPY/Vho8I3IrZI7/exYeEh2VVkXnmcrPPYH5FVv8feiEiP856MeyLi8bi7GldpR+8fxItHcV2hXZbivdHrzybz6va0SjhfiPY50Wn3b51MVUmz1c04G51dWzelE2mYiPSY2OnLy0wzmrVFVjf1e+cLN/fo2ohUo5ybSYjMVSYj0o00TEQW6nhURRlEmbZIU8W6fzW5X/yiA9kB1EhYlXSqX9Yi3UjDRFQ8R6S6daNpVf7qz3FTM90ccnEDqwb39ab+1Fzf0ttxZieJBnN/WaeIj2VvFuXXBxOrG2mQyI8f7OZf6lpnM3VZ6DtqRNz3XnxRX9dUJiwvdI0ex6aJzVUmWeuJCS9idSMNExESf4ydSEUzM1aluSL2FDqXNbFSCl3buRNAVjdv7pWO1Y00VKSKmvubqSxUGhoRu8hCVFu0zFmTW4jYSeIDJ6oky03E6kQaKmJ6cPuerP756/f6q/J1UNVJnRlGjVpOkv56rfuv3u5GGiiiihSt2u4m91evzFDUJyLHoKZVDhDpLPN2XGsVdqxmGtk/kdKaFPUscPrzu0//XnRF3Cb4VNPKTR/pinQ6eAgRWftZnSqnkdLf2d1uaVdIXK/v7K5IN1IgEdm4VCOxiihaTcsefcT1xDv85t7htyXSjRRIxIzB+r4KHtujljXXict6/TI1le6ZEFsi3UihRMyaq16hyLWDqkcjJ/rS8d96+XJSp4glyt1l/xKlJeKJFEjEjMH1GlFhj1Yzd9xSLdFeIfYtGtsi3UihRGTj0mOllvi17reFqeXqqn73WO8jzGj9+rf6e/tmBvBmGd8W8UQKJaI27mW94Tn7uGhy3IoZ8o28vJebrrOP5mNyYyUSrGXHndhYHdkbq46IJ9KuIoF5cm7YhuQi1mAddGefXCRvumre82Rsa5KLFHoUrRp89sRkvRXp+8i8b+m3O+lFmlHU+zRkV77HqLWUu5ejd97nU7vyPH/oQYYiaFAEDYqgQRE0KIIGRdCgCBoUQYMiaFAEjS1F/tuYONVdD0UoEgmKUCQSFKFIJNKK5CF/bHNJKvI4PgwR8ZeTQxCR//M9ABH1z+u9F1mKH6Vf7b+I/E/XpDgIkePP5SGI/DQty0MQUVBkAyhCkRC19kARioSotQeKUCRErT1QhCIhau2BIs9aJCYUoUgkKEKRSGwp8nJj4lR3PRShSCQoQpFIUIQikUgmok7lOX0PskPcVaQ5eWIU7EwBlzQizsk/cUzSiMizUB70mSaes0ACkERE/Allqi6tA2fCkkTEfgw0X3NY2lCSiNiHFsV6tpV8HjkYkfZpN6FILWIdYhWW1CLewyJDkFhEH80YgbQiomFFeh6fVER4xGlYaUXECWGxPFKKiNVJvPPy04ncxvyPaUKRPPChR21SifiPTQ5IIhF5TGiwSvtII1LE2+LWJNtYRfZIth+xiTKXpBBpHzq8tyLu6aV7LJIEilAkEhShSCSe6+EVuFAEDYqgQRE0KIIGRdCgCBoUQYMiaFAEDYqgQRE0KIIGRdCgCBoUQYMiaFAEDYqgQRE0KIIGRdCgCBoUQYMiaFAEDYqgQRE0KIIGRdCgCBoUQYMiaFAEDYqgQRE0KIIGRdCgCBoUQYMiaFAEDYqgQRE0KIIGRdCgCBoUQYMiaFAEDYqg8T+sNkBCNdzXJQAAAABJRU5ErkJggg==;clipPath=inset(34% 33% 30.67% 16%);" vertex="1" parent="1">
          <mxGeometry x="754.3299999999999" y="211.25" width="55.34" height="57.5" as="geometry" />
        </mxCell>
        <mxCell id="6rzzWLgIkeYkTLLRdGZp-32" value="" style="endArrow=classic;html=1;rounded=0;strokeWidth=5;" edge="1" parent="1">
          <mxGeometry width="50" height="50" relative="1" as="geometry">
            <mxPoint x="200" y="317.5" as="sourcePoint" />
            <mxPoint x="360" y="317.5" as="targetPoint" />
          </mxGeometry>
        </mxCell>
        <mxCell id="6rzzWLgIkeYkTLLRdGZp-33" value="" style="endArrow=classic;html=1;rounded=0;strokeWidth=5;" edge="1" parent="1">
          <mxGeometry width="50" height="50" relative="1" as="geometry">
            <mxPoint x="200" y="361.5" as="sourcePoint" />
            <mxPoint x="580" y="361.5" as="targetPoint" />
          </mxGeometry>
        </mxCell>
        <mxCell id="6rzzWLgIkeYkTLLRdGZp-34" value="&lt;font style=&quot;font-size: 15px;&quot;&gt;Kategorie&lt;/font&gt;" style="text;html=1;align=center;verticalAlign=middle;resizable=0;points=[];autosize=1;strokeColor=none;fillColor=none;" vertex="1" parent="1">
          <mxGeometry x="737" y="190" width="90" height="30" as="geometry" />
        </mxCell>
      </root>
    </mxGraphModel>
  </diagram>
</mxfile>
